The.Hobbit:An.Unexpected.Journey.2012.ENG.cam.Happyviking
 
http://www.imdb.com/title/tt0903624

Plot:
A younger and more reluctant Hobbit, Bilbo Baggins, sets out on a "unexpected journey" to the Lonely Mountain 

with a spirited group of Dwarves to reclaim a their stolen mountain home from a dragon named Smaug.

Sources - Audio-friend....Thanks :P
 VIDEO-spanish cam.....Thanks :P
 Subs-N/A....
Video
ID : 0
Format : MPEG-4 Visual
Format profile : Advanced Simple@L5
Format settings, BVOP : 2
Format settings, QPel : No
Format settings, GMC : No warppoints
Format settings, Matrix : Default (H.263)
Muxing mode : Packed bitstream
Codec ID : XVID
Codec ID/Hint : XviD
Duration : 2h 37mn
Bit rate : 1 495 Kbps
Width : 720 pixels
Height : 334 pixels
Display aspect ratio : 2.2:1
Frame rate : 23.976 fps
Color space : YUV
Chroma subsampling : 4:2:0
Bit depth : 8 bits
Scan type : Progressive
Compression mode : Lossy
Bits/(Pixel*Frame) : 0.259
Stream size : 1.64 GiB (88%)
Writing library : XviD 64

Audio
ID : 1
Format : MPEG Audio
Format version : Version 1
Format profile : Layer 3
Codec ID : 55
Codec ID/Hint : MP3
Duration : 2h 37mn
Bit rate mode : Constant
Bit rate : 192 Kbps
Channel(s) : 2 channels
Sampling rate : 44.1 KHz
Compression mode : Lossy
Stream size : 216 MiB (11%)
Alignment : Split accross interleaves
Interleave, duration : 10916 ms (261.72 video frames)

Notes -
Reason for readnfo... the video has missing video in 4 places in total 6 mins of video is missing!... with that 

been said.. the audio is cam.. filtered the spanish video... came out nice.. and is very watcahble on the dark 

scenes.. the spanish video it self has 2 repeating scenes.. whoever encoded this did a shit job at it... you can 

only work with what you get! it does stutter and glitch a few times points at the spanish encoder <-- nothing 

can be done to fix that still a great thnxs to them guys !.. synced cam audio to it.. which took the piss... 

here it is enjoy...

overall this will do for now!
 
http://bayimg.com/cAhedaAeE 
http://bayimg.com/caHEeaAEE 
http://bayimg.com/CAHEGaaee 
http://bayimg.com/CAHEhaAeE 
http://bayimg.com/cAhEiaAEe 
http://bayimg.com/CAhEkaaEe 
http://bayimg.com/CAHeMAaee 
http://bayimg.com/caHeNAAEE 
http://bayimg.com/CAHeoAaee 
http://bayimg.com/CaHepaaeE


! Sample-movie




